<?xml version="1.0" encoding="UTF-8"?>
<svg version="1.1" xmlns="http://www.w3.org/2000/svg" width="1080" height="1080">
<path d="M0 0 C1.61123896 0.02219177 3.22259864 0.03855601 4.83398438 0.04296875 C25.32387378 0.14918902 46.65319028 5.69023583 65.69433594 13.03710938 C66.38317871 13.29572754 67.07202148 13.5543457 67.78173828 13.82080078 C90.77869458 22.51444785 112.34930802 34.6512592 130.69433594 51.03710938 C132.04840972 52.18305247 133.4025638 53.32890071 134.75683594 54.47460938 C138.35327184 57.64566039 141.78047831 60.98454248 145.19433594 64.34960938 C145.73582275 64.87804443 146.27730957 65.40647949 146.83520508 65.95092773 C148.16145927 67.27419053 149.43304246 68.6517887 150.69433594 70.03710938 C150.69433594 70.69710937 150.69433594 71.35710937 150.69433594 72.03710938 C151.35433594 72.03710938 152.01433594 72.03710938 152.69433594 72.03710938 C153.95605469 73.43554688 153.95605469 73.43554688 155.38183594 75.41210938 C156.17521362 76.50652344 156.17521362 76.50652344 156.98461914 77.62304688 C157.54882568 78.4196875 158.11303223 79.21632813 158.69433594 80.03710938 C159.56674927 81.26300781 159.56674927 81.26300781 160.45678711 82.51367188 C180.21717377 110.51906836 194.62222884 142.79951515 194.93261719 177.63476562 C194.94222977 178.53881638 194.95184235 179.44286713 194.96174622 180.37431335 C194.98635689 183.28278399 194.9989905 186.19104689 195.00683594 189.09960938 C195.01011902 190.08699097 195.0134021 191.07437256 195.01678467 192.0916748 C195.03264467 206.79598812 194.34529334 220.7238696 190.69433594 235.03710938 C190.46315063 236.02227539 190.46315063 236.02227539 190.22729492 237.02734375 C185.03969348 258.85273131 176.49633076 278.68058784 163.69433594 297.03710938 C162.56318359 298.66132812 162.56318359 298.66132812 161.40917969 300.31835938 C155.7546164 308.11775701 149.35138292 315.09987999 142.69433594 322.03710938 C142.23269043 322.52598633 141.77104492 323.01486328 141.29541016 323.51855469 C134.35269331 330.85907044 126.85383909 337.12056345 118.69433594 343.03710938 C117.99904785 343.54483887 117.30375977 344.05256836 116.58740234 344.57568359 C114.3590289 346.19752333 112.12244824 347.80722733 109.88183594 349.41210938 C109.18880371 349.91218506 108.49577148 350.41226074 107.78173828 350.92749023 C100.16203844 356.3151476 92.96616133 360.72036814 83.36621094 359.81835938 C78.02485525 358.89865575 75.19104058 357.35656805 71.69433594 353.03710938 C71.13746094 352.43898438 70.58058594 351.84085938 70.00683594 351.22460938 C67.04888257 346.2946871 66.05512323 340.7071958 67.04199219 335.04101562 C70.02261848 325.88496 78.67950797 321.14601284 86.39746094 316.36132812 C93.88063444 311.71107031 101.26397277 306.67258195 107.38183594 300.27148438 C108.69433594 299.03710938 108.69433594 299.03710938 110.69433594 299.03710938 C111.09845703 298.13605469 111.09845703 298.13605469 111.51074219 297.21679688 C112.70236638 295.02232064 113.79500676 293.82378858 115.63183594 292.16210938 C134.02755991 274.14803943 145.39943278 250.72941165 151.69433594 226.03710938 C152.01660156 224.81636719 152.33886719 223.595625 152.67089844 222.33789062 C154.86112882 212.37950669 154.98138078 202.44104465 155.00683594 192.28710938 C155.01051178 191.58191162 155.01418762 190.87671387 155.01797485 190.15014648 C155.10756495 157.19248853 144.19703387 126.36763815 123.72558594 100.56054688 C122.69433594 99.03710938 122.69433594 99.03710938 122.69433594 97.03710938 C121.70433594 96.70710938 120.71433594 96.37710938 119.69433594 96.03710938 C118.11621094 94.43554688 118.11621094 94.43554688 116.44433594 92.41210938 C97.25701995 69.96731945 71.20867892 56.58826665 43.69433594 47.03710938 C42.81003906 46.72902344 41.92574219 46.4209375 41.01464844 46.10351562 C15.44970123 38.22167088 -17.34736653 37.91813458 -43.30566406 44.03710938 C-43.9526123 44.18164551 -44.59956055 44.32618164 -45.26611328 44.47509766 C-83.01113816 53.04531578 -118.38907572 77.07373008 -140.30566406 109.03710938 C-140.67643066 109.57416504 -141.04719727 110.1112207 -141.42919922 110.66455078 C-162.22661905 141.03215102 -171.54748328 176.39064525 -166.58203125 212.96582031 C-166.34965664 214.70739819 -166.15523089 216.45397996 -165.96972656 218.20117188 C-164.69915671 228.22455625 -160.91410247 237.66029045 -157.30566406 247.03710938 C-157.02513184 247.77171387 -156.74459961 248.50631836 -156.45556641 249.26318359 C-148.66961444 269.19540479 -136.55149084 287.82400909 -124.44140625 305.38623047 C-122.45469824 308.27404636 -120.50368189 311.1856032 -118.55566406 314.09960938 C-117.95492065 314.99776367 -117.95492065 314.99776367 -117.34204102 315.9140625 C-111.76476497 324.29782126 -106.40382329 332.82258775 -101.02124023 341.33203125 C-99.83289011 343.20579237 -98.64003542 345.0767014 -97.44360352 346.9453125 C-94.47419181 351.5846997 -91.52071531 356.20644694 -88.86816406 361.03710938 C-88.37445313 361.92398437 -87.88074219 362.81085938 -87.37207031 363.72460938 C-86.30566406 366.03710938 -86.30566406 366.03710938 -86.30566406 369.03710938 C-91.2722564 368.44306598 -95.11540805 366.21270295 -99.43066406 363.84960938 C-100.18621582 363.44178223 -100.94176758 363.03395508 -101.72021484 362.61376953 C-103.230004 361.7978327 -104.73834167 360.97920359 -106.24511719 360.15771484 C-107.98349916 359.21231517 -109.72967237 358.2812626 -111.47753906 357.35351562 C-152.96055809 335.23323525 -181.75761071 301.35281701 -197.30566406 257.03710938 C-197.57507813 256.27140625 -197.84449219 255.50570312 -198.12207031 254.71679688 C-205.31801311 233.92851767 -208.53663358 213.52311768 -208.55566406 191.53710938 C-208.55633881 190.83123688 -208.55701355 190.12536438 -208.55770874 189.39810181 C-208.54051779 178.03392105 -207.85877756 167.13661954 -205.30566406 156.03710938 C-205.139375 155.28284668 -204.97308594 154.52858398 -204.80175781 153.75146484 C-196.45593929 116.66666567 -177.29472489 84.61976144 -150.49316406 57.91210938 C-149.58501953 56.98785156 -148.676875 56.06359375 -147.74121094 55.11132812 C-141.33923278 48.70483198 -134.68598953 43.2746744 -127.30566406 38.03710938 C-126.27662964 37.29823486 -126.27662964 37.29823486 -125.22680664 36.54443359 C-97.5085515 16.92796885 -65.82207575 5.69506329 -32.30566406 1.03710938 C-31.21640625 0.885 -30.12714844 0.73289062 -29.00488281 0.57617188 C-19.41408998 -0.45091737 -9.63174328 -0.13372999 0 0 Z " fill="#FAFAFA" transform="translate(547.3056640625,340.962890625)"/>
<path d="M0 0 C1.10166504 0.17740723 1.10166504 0.17740723 2.22558594 0.35839844 C15.21911095 2.5285877 27.01829402 6.56399767 39 12 C40.01271973 12.45584473 40.01271973 12.45584473 41.04589844 12.92089844 C73.48740122 27.89262716 101.16664351 58.75827407 113.67285156 92.03955078 C118.80141965 106.53585497 120.3654932 120.49611607 120.4375 135.8125 C120.44385468 136.50393097 120.45020935 137.19536194 120.45675659 137.90774536 C120.64214061 170.33839131 107.24239643 197.69493169 87.23901367 222.45996094 C86.08640646 223.8926006 84.95255723 225.34027623 83.8203125 226.7890625 C81.77727403 229.27052125 79.53047076 231.02499843 77 233 C76.2575 233.7425 75.515 234.485 74.75 235.25 C52.76806084 257.23193916 52.76806084 257.23193916 38.5625 257.3125 C33.02538037 257.13357947 28.29169366 256.25612414 24.23828125 252.265625 C20.05074433 247.03373868 17.61329336 241.82275518 18.125 235 C19.47039354 227.24156394 23.45113095 223.13454054 29.578125 218.609375 C31.8147384 217.12310932 34.05494128 215.85852331 36.4375 214.625 C54.71226792 204.88270212 67.60851552 184.23086452 73.62548828 165.00097656 C76.01298539 156.78236428 77.69842457 148.57523193 78 140 C78.03996094 139.15695312 78.07992187 138.31390625 78.12109375 137.4453125 C78.70246748 114.39555389 71.28036957 94.06842549 57 76 C56.50113281 75.35933594 56.00226563 74.71867187 55.48828125 74.05859375 C53.46153238 71.53276558 51.72076112 69.81384075 49 68 C49 67.34 49 66.68 49 66 C48.443125 65.74605469 47.88625 65.49210937 47.3125 65.23046875 C44.65674907 63.81735804 42.39817319 62.12897344 40 60.3125 C30.6378525 53.44941179 20.9245858 47.95035081 10 44 C8.81277344 43.53207031 7.62554688 43.06414062 6.40234375 42.58203125 C-3.77742656 38.942638 -13.92230934 38.49121583 -24.625 38.4375 C-25.31516205 38.42882904 -26.0053241 38.42015808 -26.71640015 38.41122437 C-40.24370347 38.29335118 -53.03016057 40.79120478 -65.5 46.1875 C-66.19448242 46.48374268 -66.88896484 46.77998535 -67.60449219 47.08520508 C-81.34724292 53.10115166 -92.52547728 60.22786437 -103 71 C-104.24910156 72.25296875 -104.24910156 72.25296875 -105.5234375 73.53125 C-122.4268415 91.30001598 -130.73893208 114.89738075 -130.47045898 139.17089844 C-129.78243356 159.11079258 -122.5129323 175.5989625 -112.05877686 192.30233765 C-110.39039562 194.97745092 -108.74907264 197.66898916 -107.10546875 200.359375 C-98.32156101 214.70765676 -98.32156101 214.70765676 -89.25 228.875 C-84.86439904 235.57211864 -80.71718245 242.39272097 -76.62451172 249.2722168 C-72.94294336 255.45423805 -69.1787274 261.57998878 -65.375 267.6875 C-60.24148619 275.94356156 -55.25776135 284.27361082 -50.36132812 292.671875 C-47.67295874 297.26948807 -44.95992371 301.85257084 -42.25 306.4375 C-41.71890625 307.33718506 -41.1878125 308.23687012 -40.640625 309.16381836 C-40.125 310.03659424 -39.609375 310.90937012 -39.078125 311.80859375 C-38.57474609 312.66179199 -38.07136719 313.51499023 -37.55273438 314.39404297 C-36.47219824 316.20750881 -35.37874795 318.01331628 -34.27539062 319.81298828 C-33.72560547 320.71130371 -33.17582031 321.60961914 -32.609375 322.53515625 C-32.10889648 323.34476807 -31.60841797 324.15437988 -31.09277344 324.98852539 C-30 327 -30 327 -30 329 C-41.22944304 328.72644475 -52.25332643 327.72140531 -63.375 326.125 C-64.54522705 325.96354492 -65.7154541 325.80208984 -66.92114258 325.63574219 C-68.0273999 325.46977539 -69.13365723 325.30380859 -70.2734375 325.1328125 C-71.25747559 324.98730957 -72.24151367 324.84180664 -73.25537109 324.69189453 C-78.66840648 323.32732041 -81.41079184 320.90584803 -84.28198242 316.16796875 C-84.66330322 315.51441406 -85.04462402 314.86085938 -85.4375 314.1875 C-86.31632871 312.73223887 -87.19661839 311.27785933 -88.078125 309.82421875 C-88.54798828 309.04353027 -89.01785156 308.2628418 -89.50195312 307.45849609 C-92.160844 303.09489911 -94.93126859 298.80250376 -97.6875 294.5 C-101.35691941 288.75564988 -105.00894564 283.00222824 -108.59765625 277.20703125 C-115.27738571 266.42250031 -122.1054045 255.77278666 -129.1875 245.25 C-136.04390904 235.05726009 -142.59826969 224.73585828 -148.76855469 214.11181641 C-149.90542151 212.16219349 -151.06194978 210.22609962 -152.2265625 208.29296875 C-160.52789367 194.27044988 -166.78630654 180.0008106 -170 164 C-170.22429687 163.00742187 -170.44859375 162.01484375 -170.6796875 160.9921875 C-175.05072706 138.53821715 -172.70549295 112.18108128 -164 91 C-163.69320313 90.24460937 -163.38640625 89.48921875 -163.0703125 88.7109375 C-162.10117218 86.44427048 -161.06503607 84.2231697 -160 82 C-159.56945312 81.07574219 -159.13890625 80.15148437 -158.6953125 79.19921875 C-155.08015367 71.66600941 -150.8238279 64.81531648 -146 58 C-145.28714844 56.98679687 -144.57429688 55.97359375 -143.83984375 54.9296875 C-121.71976356 24.42192258 -87.62548498 6.05224759 -50.97216797 -0.11206055 C-33.95357621 -2.79470606 -16.99046934 -2.82518689 0 0 Z " fill="#FBFBFB" transform="translate(567,397)"/>
<path d="M0 0 C10.10377961 9.67169435 17.73867418 21.55692008 21.60961914 35.04345703 C21.89321289 35.89810547 22.17680664 36.75275391 22.46899414 37.63330078 C28.50071342 57.0087764 25.63816857 78.90271247 16.57519531 96.84375 C13.33258938 102.91228158 9.17204472 107.93569102 4.60961914 113.04345703 C3.86454102 113.93162109 3.11946289 114.81978516 2.35180664 115.73486328 C-4.72131869 124.00327285 -13.13639579 131.25840165 -24.34741211 132.32470703 C-31.74998662 132.54377212 -36.23684039 131.67140742 -42.01538086 126.85595703 C-45.7565994 122.42556665 -48.0651909 118.31978674 -48.89038086 112.54345703 C-47.33569875 101.66068228 -39.43462826 95.38912846 -31.08959961 89.10986328 C-29.39038086 88.04345703 -29.39038086 88.04345703 -27.39038086 88.04345703 C-26.89538086 86.55845703 -26.89538086 86.55845703 -26.39038086 85.04345703 C-25.73038086 85.04345703 -25.07038086 85.04345703 -24.39038086 85.04345703 C-22.9802795 82.25487093 -21.62394368 79.44941045 -20.32788086 76.60595703 C-19.9862793 75.86474609 -19.64467773 75.12353516 -19.29272461 74.35986328 C-15.07993368 63.54520951 -16.99900171 51.4561444 -21.39038086 41.04345703 C-24.11863271 36.04652516 -27.28915736 31.98694117 -31.39038086 28.04345703 C-31.39038086 27.38345703 -31.39038086 26.72345703 -31.39038086 26.04345703 C-31.96916992 25.76373047 -32.54795898 25.48400391 -33.14428711 25.19580078 C-35.39038086 24.04345703 -35.39038086 24.04345703 -37.29272461 22.85986328 C-49.0962652 15.58743233 -61.43857647 15.02325222 -74.77709961 17.73095703 C-86.09240438 20.73051711 -95.30888394 26.94699127 -101.39038086 37.04345703 C-107.36389548 47.38299562 -109.58381871 58.74981434 -106.48022461 70.48486328 C-105.25620383 73.75547829 -103.8883661 76.88938785 -102.39038086 80.04345703 C-101.93276367 81.05150391 -101.47514648 82.05955078 -101.00366211 83.09814453 C-98.06164058 89.30460092 -94.58729261 94.94582733 -90.71069336 100.60595703 C-87.91486972 104.70551995 -85.28143619 108.90566816 -82.64038086 113.10595703 C-82.13039551 113.91621338 -81.62041016 114.72646973 -81.0949707 115.5612793 C-80.04783589 117.22580846 -79.00112719 118.89060576 -77.95483398 120.55566406 C-75.43952982 124.55550012 -72.914497 128.54917859 -70.39038086 132.54345703 C-69.39167709 134.12548459 -68.39297919 135.70751585 -67.39428711 137.28955078 C-65.38485841 140.47152791 -63.37147793 143.65095657 -61.35522461 146.82861328 C-56.00663256 155.26505228 -50.7223535 163.73424955 -45.53686523 172.27197266 C-42.19738066 177.75792651 -38.77569075 183.18757766 -35.32788086 188.60595703 C-31.24479888 195.03233351 -27.29300815 201.51400928 -23.48461914 208.10668945 C-20.80273222 212.72156912 -18.01639673 217.26328169 -15.17553711 221.78173828 C-14.43098246 222.97105462 -13.68651664 224.16042658 -12.94213867 225.34985352 C-11.82773137 227.12991248 -10.709969 228.90734311 -9.58068848 230.67800903 C-8.52521727 232.33320647 -7.48290401 233.99677198 -6.44116211 235.66064453 C-5.52330933 237.10866455 -5.52330933 237.10866455 -4.58691406 238.5859375 C-3.39038086 241.04345703 -3.39038086 241.04345703 -4.39038086 244.04345703 C-6.86151607 244.88680556 -9.16139245 245.5041649 -11.70288086 246.04345703 C-12.8208606 246.29228638 -12.8208606 246.29228638 -13.96142578 246.54614258 C-20.00823621 247.84683377 -26.09279617 248.90085343 -32.20288086 249.85595703 C-33.05599854 249.99195313 -33.90911621 250.12794922 -34.78808594 250.26806641 C-35.59141357 250.38601563 -36.39474121 250.50396484 -37.22241211 250.62548828 C-38.28552612 250.78368042 -38.28552612 250.78368042 -39.37011719 250.94506836 C-41.60846364 251.05407786 -43.27322731 250.76611211 -45.39038086 250.04345703 C-46.85522461 248.46142578 -46.85522461 248.46142578 -48.32788086 246.23095703 C-48.93116211 245.32603516 -49.53444336 244.42111328 -50.15600586 243.48876953 C-50.90113416 242.34055041 -51.6458868 241.19208748 -52.39038086 240.04345703 C-53.36389801 238.56139631 -54.33789335 237.07964962 -55.31225586 235.59814453 C-73.74151207 207.48214752 -91.30473752 178.80794917 -108.44506836 149.89111328 C-114.05563769 140.44782767 -119.85026396 131.2022087 -126.00415039 122.10546875 C-128.79069355 117.96049807 -131.52993683 113.78475659 -134.26538086 109.60595703 C-134.81315186 108.77708984 -135.36092285 107.94822266 -135.92529297 107.09423828 C-140.83126592 99.58501876 -144.54878882 92.34288137 -147.07788086 83.73095703 C-147.49840338 82.33901472 -147.91897437 80.94708705 -148.33959961 79.55517578 C-148.68635742 78.39630859 -149.03311523 77.23744141 -149.39038086 76.04345703 C-149.72038086 75.05345703 -150.05038086 74.06345703 -150.39038086 73.04345703 C-152.10948195 48.86696771 -148.33298872 26.80919674 -132.18334961 8.00439453 C-129.97903039 5.59357046 -127.78609587 3.26804954 -125.39038086 1.04345703 C-124.7187793 0.37830078 -124.04717773 -0.28685547 -123.35522461 -0.97216797 C-113.83045204 -10.07877979 -102.95610592 -16.02856214 -90.39038086 -19.95654297 C-89.57182617 -20.24271484 -88.75327148 -20.52888672 -87.90991211 -20.82373047 C-57.41101275 -31.00619289 -22.98104552 -21.2682412 0 0 Z " fill="#FBFBFB" transform="translate(603.390380859375,473.95654296875)"/>
<path d="M0 0 C0.88677933 -0.00701431 1.77355865 -0.01402863 2.68721008 -0.02125549 C5.54412976 -0.03869027 8.40084152 -0.04511101 11.2578125 -0.046875 C12.72778183 -0.04788712 12.72778183 -0.04788712 14.22744751 -0.04891968 C39.16625336 -0.02170696 63.04480419 2.65010926 87.3828125 8.203125 C88.42518066 8.4393457 89.46754883 8.67556641 90.54150391 8.91894531 C103.21470526 11.83228011 115.35133621 15.27472348 127.3828125 20.203125 C128.63061346 20.69369388 129.87932032 21.18196456 131.12890625 21.66796875 C144.95930289 27.07111318 158.43340671 32.90236645 171.3828125 40.203125 C172.53652344 40.8425 173.69023438 41.481875 174.87890625 42.140625 C182.63103101 46.46731816 190.08797154 51.13855389 197.3828125 56.203125 C197.94500488 56.59258301 198.50719727 56.98204102 199.08642578 57.38330078 C210.45932312 65.2906506 221.04711825 73.99122143 231.52539062 83.04248047 C232.36360352 83.76588623 232.36360352 83.76588623 233.21875 84.50390625 C233.75209961 84.96490723 234.28544922 85.4259082 234.83496094 85.90087891 C236.2865839 87.12216548 237.79046464 88.28056384 239.296875 89.43359375 C239.98523438 90.01753906 240.67359375 90.60148437 241.3828125 91.203125 C241.3828125 91.863125 241.3828125 92.523125 241.3828125 93.203125 C241.92679688 93.41066406 242.47078125 93.61820312 243.03125 93.83203125 C246.27606109 95.72393938 248.53437972 98.36668169 251.0078125 101.140625 C251.53487793 101.72328125 252.06194336 102.3059375 252.60498047 102.90625 C253.68535867 104.10081452 254.76365235 105.29726765 255.83984375 106.49560547 C257.2244182 108.02783865 258.63042571 109.54063975 260.0390625 111.05078125 C265.79178272 117.23131453 271.04092385 123.6971064 276.08105469 130.45996094 C277.42475592 132.2592908 278.78242725 134.04753276 280.140625 135.8359375 C286.10631495 143.75728473 291.42954321 151.88942129 296.38037109 160.47900391 C297.30510285 162.06947046 298.2587195 163.64304888 299.21484375 165.21484375 C303.88799038 172.94716086 307.70565424 180.98620315 311.45703125 189.19140625 C312.28178176 190.98358564 313.12772385 192.76597823 313.9765625 194.546875 C351.66971487 273.94308957 351.10365669 365.06902017 322.52929688 447.01367188 C310.4446731 480.63239526 291.65904376 511.43167789 269.3828125 539.203125 C268.52412869 540.28988217 267.66599052 541.37707088 266.80859375 542.46484375 C262.54715482 547.79722021 258.05796625 552.69729163 253.1328125 557.42578125 C251.30725296 559.09685712 251.30725296 559.09685712 250.3828125 561.203125 C249.7228125 561.203125 249.0628125 561.203125 248.3828125 561.203125 C248.1146875 561.80125 247.8465625 562.399375 247.5703125 563.015625 C246.38363844 565.20160354 245.28682137 566.61645094 243.3828125 568.203125 C242.7228125 568.203125 242.0628125 568.203125 241.3828125 568.203125 C241.3828125 568.863125 241.3828125 569.523125 241.3828125 570.203125 C240.01953125 571.578125 240.01953125 571.578125 238.0703125 573.203125 C234.74986501 576.01362593 231.55322665 578.91206647 228.3828125 581.890625 C213.92338299 595.06833222 197.20226337 606.30717837 180.3828125 616.203125 C179.76438477 616.56986328 179.14595703 616.93660156 178.50878906 617.31445312 C160.01463595 628.19553276 140.08729059 638.10824005 119.56640625 644.51855469 C117.11170658 645.2881184 114.67015911 646.09434037 112.2265625 646.8984375 C35.84140269 671.55351585 -55.27207781 668.34611553 -127.51464844 631.38793945 C-128.84983642 630.69484594 -130.18363423 629.99906856 -131.51611328 629.30078125 C-133.73929419 628.13933327 -135.97250164 626.99882165 -138.20703125 625.859375 C-154.48368035 617.50050871 -169.9474992 608.1443402 -184.6171875 597.203125 C-185.43413086 596.60250244 -185.43413086 596.60250244 -186.26757812 595.98974609 C-193.75761322 590.474397 -200.69599231 584.55516519 -207.44921875 578.16015625 C-209.73421856 575.9996538 -212.07841658 573.92734018 -214.4609375 571.875 C-218.93336338 567.9836856 -223.12533888 563.84238299 -227.3046875 559.640625 C-228.03751953 558.91166016 -228.77035156 558.18269531 -229.52539062 557.43164062 C-240.6171875 546.31984051 -240.6171875 546.31984051 -240.6171875 543.203125 C-241.2771875 543.203125 -241.9371875 543.203125 -242.6171875 543.203125 C-244.32421875 541.2109375 -244.32421875 541.2109375 -246.4296875 538.328125 C-246.81640625 537.80001221 -247.203125 537.27189941 -247.6015625 536.7277832 C-248.46720225 535.54309049 -249.32981081 534.35617906 -250.18994141 533.16748047 C-251.7087354 531.07712527 -253.24607817 529.00123987 -254.78515625 526.92578125 C-260.86235254 518.68238457 -266.57714176 510.36646094 -271.70703125 501.5 C-273.28687895 498.77322809 -274.93277115 496.1151454 -276.6171875 493.453125 C-280.7662074 486.54961689 -284.02685385 479.1510558 -287.39477539 471.84472656 C-288.27309189 469.94670689 -289.16151145 468.0533503 -290.05639648 466.16308594 C-293.61895993 458.58529855 -296.78535568 450.93449607 -299.6796875 443.078125 C-300.32756226 441.32423462 -300.32756226 441.32423462 -300.98852539 439.53491211 C-304.21826839 430.63497252 -306.9189182 421.70787581 -309.07006836 412.4909668 C-309.47376094 410.80287971 -309.89983441 409.12010781 -310.33813477 407.44067383 C-313.35615472 395.83676068 -314.97358984 384.06664578 -316.6171875 372.203125 C-316.74013184 371.35733887 -316.86307617 370.51155273 -316.98974609 369.64013672 C-322.82926566 328.23977605 -319.18244886 283.41490141 -307.27929688 243.45556641 C-306.61149835 241.18377098 -305.97896206 238.90434552 -305.3515625 236.62109375 C-299.66343324 216.31949122 -292.03444771 196.54304652 -281.6171875 178.203125 C-280.60459041 176.16767667 -279.60414515 174.12612827 -278.6171875 172.078125 C-264.56922118 143.7543875 -243.45924154 118.81067159 -221.6171875 96.203125 C-221.13765625 95.70167969 -220.658125 95.20023437 -220.1640625 94.68359375 C-214.95064588 89.24017346 -209.50082094 84.32704232 -203.609375 79.62890625 C-201.40974554 77.84565573 -199.25869667 76.04255802 -197.125 74.18359375 C-196.52204102 73.65878418 -195.91908203 73.13397461 -195.29785156 72.59326172 C-194.13742502 71.57937904 -192.98023481 70.56177369 -191.82714844 69.53955078 C-187.3596373 65.64794005 -182.58511722 62.42019014 -177.6171875 59.203125 C-176.07604198 58.17825669 -174.53568388 57.15220339 -172.99609375 56.125 C-140.91386072 34.91467428 -105.35779297 17.5125121 -67.6171875 9.203125 C-66.67198242 8.99349121 -65.72677734 8.78385742 -64.75292969 8.56787109 C-49.80956369 5.30693484 -34.82255681 2.85483478 -19.6171875 1.203125 C-18.88860535 1.12020203 -18.16002319 1.03727905 -17.40936279 0.95184326 C-11.59209154 0.32150105 -5.84937998 0.03128279 0 0 Z M-37.6171875 11.203125 C-38.72030273 11.38536621 -39.82341797 11.56760742 -40.95996094 11.75537109 C-54.73636595 14.10241875 -68.27778235 17.03116353 -81.6171875 21.203125 C-82.53177734 21.48526855 -83.44636719 21.76741211 -84.38867188 22.05810547 C-98.61869411 26.4879855 -112.20012805 31.72033528 -125.6171875 38.203125 C-126.32810547 38.5434375 -127.03902344 38.88375 -127.77148438 39.234375 C-142.31270395 46.22508338 -156.37668372 53.96073412 -169.6171875 63.203125 C-170.16584473 63.58049805 -170.71450195 63.95787109 -171.27978516 64.34667969 C-179.05386912 69.6988965 -186.39614532 75.37760725 -193.53125 81.5546875 C-196.35280796 83.99652177 -199.25678056 86.32072465 -202.1796875 88.640625 C-206.43705952 92.10680399 -210.407111 95.78109613 -214.3046875 99.640625 C-214.83457275 100.16132568 -215.36445801 100.68202637 -215.91040039 101.21850586 C-218.7475589 103.73772404 -218.7475589 103.73772404 -219.6171875 107.203125 C-221.1021875 107.698125 -221.1021875 107.698125 -222.6171875 108.203125 C-224.19735517 109.72382473 -224.19735517 109.72382473 -225.7421875 111.640625 C-228.42552178 114.81440063 -231.17151501 117.90068396 -233.9921875 120.953125 C-238.92076144 126.43024174 -243.30893309 132.23299673 -247.6171875 138.203125 C-248.31980713 139.16895508 -248.31980713 139.16895508 -249.03662109 140.15429688 C-263.91002313 160.64460115 -277.42958151 182.81622645 -286.2734375 206.62890625 C-287.44756721 209.75195475 -288.71752985 212.7996557 -290.02734375 215.8671875 C-318.61755952 284.20955259 -318.20938559 366.78832262 -293.6171875 436.203125 C-293.11832031 437.62165771 -293.11832031 437.62165771 -292.609375 439.06884766 C-288.28440497 451.25616204 -283.60898957 463.02965223 -277.53173828 474.44873047 C-276.08498939 477.22404749 -274.77478354 480.06493185 -273.4296875 482.890625 C-262.54478807 504.58637692 -248.23689158 524.61455281 -232.03076172 542.62646484 C-230.81772236 543.97945417 -229.62370267 545.34945365 -228.43359375 546.72265625 C-217.17759057 559.60233241 -205.048414 571.74326345 -191.29833984 581.93652344 C-189.5603921 583.24591537 -187.86177769 584.59500874 -186.16796875 585.9609375 C-177.97093297 592.5689634 -169.53061201 598.59845655 -160.6171875 604.203125 C-159.43455322 604.94949219 -159.43455322 604.94949219 -158.22802734 605.7109375 C-143.59482123 614.85986021 -128.42707108 622.31376304 -112.6171875 629.203125 C-111.89515137 629.52361816 -111.17311523 629.84411133 -110.42919922 630.17431641 C-83.01740741 642.28053795 -53.15009128 648.20810962 -23.6171875 652.203125 C-22.50585449 652.35563721 -22.50585449 652.35563721 -21.37207031 652.51123047 C29.15659537 658.81264558 85.08677819 651.45749986 131.8828125 631.265625 C132.77500488 630.88083984 133.66719727 630.49605469 134.58642578 630.09960938 C151.36127677 622.78534681 167.9986139 615.16533165 183.3828125 605.203125 C184.39859375 604.54957031 185.414375 603.89601563 186.4609375 603.22265625 C201.75080134 593.19618795 216.0945707 582.33582605 229.48828125 569.875 C232.0405664 567.51904448 234.63857496 565.23370499 237.2578125 562.953125 C247.60242967 553.65796175 256.75188987 543.08045214 265.3828125 532.203125 C266.01058594 531.45546875 266.63835938 530.7078125 267.28515625 529.9375 C301.24578854 489.10140228 323.33190529 435.49830806 331.3828125 383.203125 C331.52412598 382.32962402 331.66543945 381.45612305 331.81103516 380.55615234 C334.06874793 366.46001745 335.06912484 352.46884837 335.3828125 338.203125 C335.41246094 336.965625 335.44210937 335.728125 335.47265625 334.453125 C335.50966353 331.03200747 335.46185668 327.62358243 335.3828125 324.203125 C335.36395996 323.04683594 335.36395996 323.04683594 335.34472656 321.8671875 C334.6334024 283.65891806 326.8424427 245.60218349 312.3828125 210.203125 C312.11307617 209.5426416 311.84333984 208.8821582 311.56542969 208.20166016 C302.68513892 186.78960959 291.92828776 166.0292556 278.3828125 147.203125 C277.83125488 146.42533691 277.27969727 145.64754883 276.71142578 144.84619141 C265.25559046 128.72400172 252.67955119 114.33708398 238.7578125 100.328125 C238.22860199 99.79346619 237.69939148 99.25880737 237.15414429 98.70794678 C230.23441175 91.73526291 223.11107963 85.28961983 215.3828125 79.203125 C214.1786621 78.22652338 212.97538436 77.24884358 211.7734375 76.26953125 C199.65005497 66.55162658 186.72752801 58.1505054 173.3828125 50.203125 C172.53275635 49.68782227 172.53275635 49.68782227 171.66552734 49.16210938 C147.72049184 34.71718583 121.06254706 24.65618281 94.0078125 17.890625 C93.34748016 17.72527252 92.68714783 17.55992004 92.00680542 17.38955688 C50.07341376 6.98250556 5.13735642 4.12711908 -37.6171875 11.203125 Z " fill="#E9E9E9" transform="translate(528.6171875,200.796875)"/>
<path d="M0 0 C4.77148367 4.50757417 7.39180278 9.4806261 7.75 16.0625 C7.53772115 20.78978672 5.88697893 23.62208981 3.25 27.5 C2.59 28.49 1.93 29.48 1.25 30.5 C2.80926748 32.08651682 4.37256518 33.66907315 5.9375 35.25 C6.80761719 36.13171875 7.67773438 37.0134375 8.57421875 37.921875 C11.03085232 40.28885041 13.58577243 42.37581856 16.25 44.5 C17.62368345 46.13356951 18.96937515 47.7925002 20.25 49.5 C17.58565262 52.16434738 15.98911674 52.09209636 12.25 52.5 C11.59467285 52.61069824 10.9393457 52.72139648 10.26416016 52.83544922 C6.47657606 53.21942422 4.12502511 53.10088429 0.92700195 50.90478516 C-1.44086614 48.69423276 -3.63635325 46.39929239 -5.8125 44 C-6.58271484 43.18917969 -7.35292969 42.37835938 -8.14648438 41.54296875 C-10.0354321 39.54842767 -11.89567544 37.52677035 -13.75 35.5 C-13.09 41.77 -12.43 48.04 -11.75 54.5 C-15.61790003 56.43395001 -16.9000459 56.73289353 -21 56.625 C-22.33804687 56.59792969 -22.33804687 56.59792969 -23.703125 56.5703125 C-24.37859375 56.54710937 -25.0540625 56.52390625 -25.75 56.5 C-26.75387334 49.650824 -27.74996076 42.80054771 -28.74072266 35.94946289 C-29.07846104 33.62042806 -29.41796061 31.29164789 -29.75927734 28.96313477 C-30.25044006 25.61019744 -30.73519748 22.25638599 -31.21875 18.90234375 C-31.37186646 17.86665756 -31.52498291 16.83097137 -31.68273926 15.76390076 C-32.4183104 10.61767781 -32.92849382 5.69863241 -32.75 0.5 C-23.19989716 -2.30885378 -8.94385546 -6.23871959 0 0 Z M-16.75 10.5 C-17.70024979 14.19541586 -17.70024979 16.80458414 -16.75 20.5 C-12.295 20.005 -12.295 20.005 -7.75 19.5 C-6.45957237 17.23398135 -6.45957237 17.23398135 -5.75 14.5 C-6.46234228 12.02077886 -6.46234228 12.02077886 -8.75 10.5 C-11.50548982 10.15894723 -13.954766 10.31670597 -16.75 10.5 Z " fill="#EEEEEE" transform="translate(510.75,246.5)"/>
<path d="M0 0 C2.98046875 1.8203125 2.98046875 1.8203125 6.1875 4.125 C6.76064941 4.53242432 7.33379883 4.93984863 7.92431641 5.35961914 C9.62101893 6.56651529 11.31056236 7.7829668 13 9 C14.62269401 10.14909668 16.24748547 11.29524106 17.875 12.4375 C18.66519531 12.99308594 19.45539063 13.54867188 20.26953125 14.12109375 C23.02021979 16.01391376 25.7990432 17.8576156 28.58618164 19.69604492 C34.93647131 23.88590251 41.10534313 28.17564668 47 33 C43.88390902 36.18996383 40.91162841 38.79970902 37 41 C34.17583459 40.91441923 32.96770676 39.97790462 30.625 38.375 C27.19616083 36.57894139 25.71709282 37.07186981 22 38 C17.96835016 40.04666508 14.74510473 42.38477005 12 46 C11.92781431 49.21014021 12.48753191 51.99735216 13.08984375 55.14453125 C13 58 13 58 10.87890625 60.32421875 C8.31614389 62.07656528 5.77637447 63.61425246 3 65 C1 64 1 64 0.24145508 61.9440918 C0.00322021 61.03828369 -0.23501465 60.13247559 -0.48046875 59.19921875 C-0.75431396 58.17207764 -1.02815918 57.14493652 -1.31030273 56.08666992 C-1.59977783 54.96494385 -1.88925293 53.84321777 -2.1875 52.6875 C-2.48922119 51.53934814 -2.79094238 50.39119629 -3.10180664 49.20825195 C-4.07799751 45.47471906 -5.03990846 41.73770289 -6 38 C-6.33630005 36.70174815 -6.6728895 35.40357124 -7.00976562 34.10546875 C-7.99570954 30.30202307 -8.96812501 26.49520495 -9.9375 22.6875 C-10.24389404 21.49664795 -10.55028809 20.3057959 -10.8659668 19.07885742 C-11.14609619 17.96357666 -11.42622559 16.8482959 -11.71484375 15.69921875 C-11.96355225 14.71783936 -12.21226074 13.73645996 -12.46850586 12.7253418 C-12.99168759 10.04262353 -13.2154974 7.72345139 -13 5 C-11.42578125 3.1640625 -11.42578125 3.1640625 -9.3125 1.625 C-8.62800781 1.10164063 -7.94351562 0.57828125 -7.23828125 0.0390625 C-4.26483811 -1.34127934 -3.08127368 -1.08534416 0 0 Z M4 21 C4.99 24.63 5.98 28.26 7 32 C8.98 30.68 10.96 29.36 13 28 C11.6581656 23.97449681 9.5772427 23.11714364 6 21 C5.34 21 4.68 21 4 21 Z " fill="#EFEFEF" transform="translate(382,292)"/>
<path d="M0 0 C1.00289062 0.10183594 2.00578125 0.20367187 3.0390625 0.30859375 C3.80992187 0.39238281 4.58078125 0.47617188 5.375 0.5625 C7.56102372 6.13338559 9.29731905 11.65160875 10.75 17.453125 C11.06590088 18.69192413 11.06590088 18.69192413 11.38818359 19.95574951 C12.05467745 22.57361536 12.7149251 25.1930092 13.375 27.8125 C13.8173001 29.55348918 14.26000529 31.2943755 14.703125 33.03515625 C15.5518188 36.37182125 16.39526114 39.7097418 17.234375 43.04882812 C17.93861475 45.84841666 18.65510616 48.64401843 19.390625 51.43554688 C19.67421875 52.52416016 19.9578125 53.61277344 20.25 54.734375 C20.49492188 55.65831055 20.73984375 56.58224609 20.9921875 57.53417969 C21.18167969 58.53819824 21.18167969 58.53819824 21.375 59.5625 C21.045 59.8925 20.715 60.2225 20.375 60.5625 C18.18449979 60.47232004 15.996534 60.31583792 13.8125 60.125 C12.61496094 60.02316406 11.41742187 59.92132813 10.18359375 59.81640625 C9.25675781 59.73261719 8.32992187 59.64882813 7.375 59.5625 C6.86884702 58.29410474 6.37030901 57.02266898 5.875 55.75 C5.5965625 55.04230469 5.318125 54.33460938 5.03125 53.60546875 C4.375 51.5625 4.375 51.5625 4.375 48.5625 C-2.225 47.9025 -8.825 47.2425 -15.625 46.5625 C-16.285 48.5425 -16.945 50.5225 -17.625 52.5625 C-18.615 53.8825 -19.605 55.2025 -20.625 56.5625 C-24.915 55.9025 -29.205 55.2425 -33.625 54.5625 C-32.5008686 48.94184302 -32.5008686 48.94184302 -30.83984375 45.91796875 C-30.47818115 45.24950928 -30.11651855 44.5810498 -29.74389648 43.89233398 C-29.35403564 43.18536377 -28.9641748 42.47839355 -28.5625 41.75 C-27.73806126 40.22478009 -26.91517847 38.69871824 -26.09375 37.171875 C-25.67867187 36.40166016 -25.26359375 35.63144531 -24.8359375 34.83789062 C-23.01782475 31.42159812 -21.28344829 27.96602001 -19.5625 24.5 C-19.08067261 23.53344482 -19.08067261 23.53344482 -18.58911133 22.54736328 C-16.85010931 19.05195617 -15.12907009 15.54820682 -13.41796875 12.0390625 C-13.05517822 11.30051025 -12.6923877 10.56195801 -12.31860352 9.80102539 C-11.61991115 8.37825978 -10.92617243 6.95304802 -10.23803711 5.52514648 C-7.41765298 -0.20341866 -6.2240425 -0.65135328 0 0 Z M-3.625 22.5625 C-4.29908308 23.82941507 -4.96400497 25.10120749 -5.625 26.375 C-5.99625 27.08269531 -6.3675 27.79039062 -6.75 28.51953125 C-7.82185358 30.65170729 -7.82185358 30.65170729 -7.625 33.5625 C-5.315 33.5625 -3.005 33.5625 -0.625 33.5625 C-0.955 29.9325 -1.285 26.3025 -1.625 22.5625 C-2.285 22.5625 -2.945 22.5625 -3.625 22.5625 Z " fill="#EFEFEF" transform="translate(573.625,242.4375)"/>
<path d="M0 0 C0.93556639 2.28459276 1.68248316 4.45443267 2.375 6.8125 C3.90901997 11.72744619 5.53748136 16.50834097 7.5625 21.25 C7.96855469 22.21035156 8.37460937 23.17070312 8.79296875 24.16015625 C9.60300298 26.06596495 10.41817934 27.96959563 11.23828125 29.87109375 C14.26421106 37.36832878 14.73329302 42.70803633 11.6875 50.25 C7.73733329 56.68730871 3.88880288 60.53335913 -3.5 62.75 C-11.36265921 63.53626592 -17.40975824 62.83879581 -23.6875 57.875 C-29.58053435 50.54852486 -32.872985 41.86668158 -36.18676758 33.15063477 C-36.94518126 31.16741382 -37.72704811 29.19443832 -38.50976562 27.22070312 C-38.99624348 25.95368148 -39.48132225 24.68612155 -39.96484375 23.41796875 C-40.4043335 22.28125732 -40.84382324 21.1445459 -41.29663086 19.97338867 C-42 17 -42 17 -41.33813477 14.67700195 C-39.13178555 11.91192026 -36.35886477 11.69493754 -33 11 C-31.68 11 -30.36 11 -29 11 C-27.95480368 13.49857582 -26.91302623 15.99844302 -25.875 18.5 C-25.40175293 19.64021606 -25.40175293 19.64021606 -24.91894531 20.8034668 C-22.46892967 26.75341703 -20.18108394 32.75134254 -18.04248047 38.8203125 C-16.78671623 42.28869922 -15.63439164 45.36560836 -13 48 C-9.56936423 48.87840876 -6.1310199 48.65672123 -3.0625 46.875 C-1.22843315 43.63841143 -0.61138342 40.60941064 -1.49731445 36.94042969 C-2.30571836 34.57464798 -3.19529513 32.25827578 -4.125 29.9375 C-4.60453125 28.6853772 -4.60453125 28.6853772 -5.09375 27.40795898 C-6.56073206 23.5912384 -8.0789154 19.79626825 -9.6171875 16.0078125 C-10.30167969 14.30238281 -10.30167969 14.30238281 -11 12.5625 C-11.4125 11.57378906 -11.825 10.58507812 -12.25 9.56640625 C-13.0615737 6.7893025 -13.29294225 5.5858845 -12 3 C-10.0390625 1.69921875 -10.0390625 1.69921875 -7.625 0.6875 C-6.83351563 0.34074219 -6.04203125 -0.00601563 -5.2265625 -0.36328125 C-3 -1 -3 -1 0 0 Z " fill="#EDEDED" transform="translate(458,253)"/>
<path d="M0 0 C5.7875885 2.43863758 10.34689516 6.25160618 13 12 C14.55303244 18.54880112 14.2061536 23.10067738 11 29 C6.75726205 28.34727108 3.0234967 26.0234967 0 23 C-0.36760731 20.67182036 -0.70241581 18.3381615 -1 16 C-2.98 15.34 -4.96 14.68 -7 14 C-6.41993048 17.7888085 -5.2167845 21.12872314 -3.77709961 24.67236328 C-0.58362709 32.57479164 1.84381595 38.85672393 -1.1875 47.3125 C-4.14786036 51.70199984 -7.82227567 54.73433405 -13 56 C-20.87175966 56.37953127 -26.88239858 53.87021815 -33 49 C-37.6303323 43.97672665 -39.38923981 39.15564251 -39.3671875 32.4296875 C-38.74329428 28.30137281 -36.49148467 25.26562456 -34 22 C-32.53426066 22.90477737 -31.07764244 23.82434141 -29.625 24.75 C-28.81289063 25.26046875 -28.00078125 25.7709375 -27.1640625 26.296875 C-24.86078138 28.10956556 -23.9692446 29.26083049 -23 32 C-22.9222654 34.33203812 -22.91032272 36.66839059 -23 39 C-18.60746227 40.56272189 -18.60746227 40.56272189 -14 41 C-15.80442302 35.34067324 -17.82499631 29.83372968 -20.1328125 24.359375 C-21.87975583 19.6064301 -22.44281479 15.04808863 -22 10 C-16.88149097 0.33170516 -10.42058708 -1.62783135 0 0 Z " fill="#EEEEEE" transform="translate(710,294)"/>
<path d="M0 0 C3.96 1.32 7.92 2.64 12 4 C10.89551881 10.35076683 9.36187635 16.11957823 7.07421875 22.140625 C5.23267226 27.04248692 3.63743006 32.02706426 2 37 C1.41741045 38.75024775 0.83415602 40.50027445 0.25 42.25 C-0.1625 43.4875 -0.575 44.725 -1 46 C4.28 47.98 9.56 49.96 15 52 C13.25 61.625 13.25 61.625 11 65 C4.59310675 63.39218648 -1.53704779 61.52782505 -7.6328125 58.9765625 C-9.92124656 58.03248904 -12.22811827 57.19743342 -14.5625 56.375 C-18 55 -18 55 -19 53 C-18.55029297 51.17504883 -18.55029297 51.17504883 -17.7421875 48.95703125 C-17.44868408 48.13775146 -17.15518066 47.31847168 -16.8527832 46.47436523 C-16.53011475 45.59594971 -16.20744629 44.71753418 -15.875 43.8125 C-15.21909937 41.98732125 -14.56415922 40.16179708 -13.91015625 38.3359375 C-13.58418457 37.43069336 -13.25821289 36.52544922 -12.92236328 35.59277344 C-11.66477556 32.05768038 -10.48469426 28.50185246 -9.3125 24.9375 C-6.51584264 16.4925117 -3.61463148 8.13292083 0 0 Z " fill="#ECECEC" transform="translate(622,251)"/>
<path d="M0 0 C3.00231284 0.70658828 5.50456755 1.64402657 8.25 3.0625 C8.95640625 3.42472656 9.6628125 3.78695313 10.390625 4.16015625 C10.92171875 4.43730469 11.4528125 4.71445312 12 5 C11.38864394 9.036146 10.08755536 12.12196092 8.19140625 15.7265625 C7.61342285 16.83281982 7.03543945 17.93907715 6.43994141 19.07885742 C5.81427185 20.2609813 5.18845526 21.44302738 4.5625 22.625 C3.92831803 23.83344879 3.29469534 25.04219124 2.66162109 26.2512207 C1.38859243 28.67968243 0.11190364 31.1061577 -1.16845703 33.53076172 C-2.83429056 36.68611955 -4.49464505 39.84426938 -6.15234375 43.00390625 C-8.42834852 47.33941682 -10.71159911 51.67102043 -13 56 C-17.99766643 55.33504438 -20.92061431 54.01097515 -25 51 C-24.38566904 46.63768659 -22.71780506 43.10850932 -20.68359375 39.2578125 C-20.34884537 38.61238495 -20.01409698 37.9669574 -19.66920471 37.30197144 C-18.59780048 35.23988319 -17.51774367 33.1824688 -16.4375 31.125 C-15.73837542 29.78153964 -15.03980301 28.43779179 -14.34179688 27.09375 C-9.62527219 18.02842549 -4.82360329 9.00870508 0 0 Z " fill="#EBEBEB" transform="translate(669,270)"/>
<path d="M0 0 C2.475 0.495 2.475 0.495 5 1 C6.3125 3.5625 6.3125 3.5625 7 6 C9.75383923 4.62308038 10.51483101 2.63279958 12 0 C13.32 0.33 14.64 0.66 16 1 C15.67 5.95 15.34 10.9 15 16 C13.68 16 12.36 16 11 16 C10.67 15.34 10.34 14.68 10 14 C8.68 14 7.36 14 6 14 C4.25 12.5 4.25 12.5 3 11 C2.67 12.65 2.34 14.3 2 16 C1.34 16 0.68 16 0 16 C0 10.72 0 5.44 0 0 Z " fill="#C7C7C7" transform="translate(525,787)"/>
<path d="M0 0 C2.375 0.3125 2.375 0.3125 5 1 C5.66 1.99 6.32 2.98 7 4 C7.33 3.34 7.66 2.68 8 2 C9.32 2.33 10.64 2.66 12 3 C10.07289294 13.55808656 10.07289294 13.55808656 8 18 C5.11424181 17.60196439 4.17810487 17.20990931 2.25 14.9375 C1.8375 14.298125 1.425 13.65875 1 13 C0.67 13.66 0.34 14.32 0 15 C-1.32 15 -2.64 15 -4 15 C-3.43179252 9.54520815 -2.05362055 5.08940744 0 0 Z " fill="#C8C8C8" transform="translate(454,773)"/>
<path d="M0 0 C0.99 0.33 1.98 0.66 3 1 C3 2.98 3 4.96 3 7 C3.99 7 4.98 7 6 7 C6.33 5.35 6.66 3.7 7 2 C8.32 2 9.64 2 11 2 C10.67 6.95 10.34 11.9 10 17 C8.68 17.33 7.36 17.66 6 18 C5 17 5 17 4.9375 14.4375 C4.958125 13.633125 4.97875 12.82875 5 12 C4.01 12.33 3.02 12.66 2 13 C1.67 13.99 1.34 14.98 1 16 C-0.32 16 -1.64 16 -3 16 C-2.88590318 13.89521396 -2.75834639 11.79115423 -2.625 9.6875 C-2.55539062 8.51574219 -2.48578125 7.34398437 -2.4140625 6.13671875 C-2 3 -2 3 0 0 Z " fill="#C3C3C3" transform="translate(491,782)"/>
<path d="M0 0 C0.99 0 1.98 0 3 0 C4.00484204 1.95585325 5.00373805 3.91476237 6 5.875 C6.556875 6.96554687 7.11375 8.05609375 7.6875 9.1796875 C9 12 9 12 9 14 C7.68 14.33 6.36 14.66 5 15 C4.67 13.68 4.34 12.36 4 11 C3.01 11.33 2.02 11.66 1 12 C1 13.98 1 15.96 1 18 C0.01 18.33 -0.98 18.66 -2 19 C-5.01679014 14.46330032 -7.53967505 10.31027254 -9 5 C-7.68 4.34 -6.36 3.68 -5 3 C-4.34 4.65 -3.68 6.3 -3 8 C-2.34 7.67 -1.68 7.34 -1 7 C-1.020625 6.030625 -1.04125 5.06125 -1.0625 4.0625 C-1 1 -1 1 0 0 Z " fill="#C0C0C0" transform="translate(659,758)"/>
<path d="M0 0 C-0.144375 0.53625 -0.28875 1.0725 -0.4375 1.625 C-0.623125 2.40875 -0.80875 3.1925 -1 4 C-1.2475 4.99 -1.495 5.98 -1.75 7 C-2.30708298 10.02065444 -2.30708298 10.02065444 -0.5625 12.25 C-0.046875 12.8275 0.46875 13.405 1 14 C1 14.66 1 15.32 1 16 C-0.65 16 -2.3 16 -4 16 C-4.33 15.01 -4.66 14.02 -5 13 C-5.66 13 -6.32 13 -7 13 C-7.66 14.32 -8.32 15.64 -9 17 C-10.32 17 -11.64 17 -13 17 C-12.855625 16.46375 -12.71125 15.9275 -12.5625 15.375 C-12.376875 14.59125 -12.19125 13.8075 -12 13 C-11.7525 11.989375 -11.505 10.97875 -11.25 9.9375 C-10.66765342 6.99758733 -10.66765342 6.99758733 -12.4375 5.125 C-12.953125 4.75375 -13.46875 4.3825 -14 4 C-13.67 3.01 -13.34 2.02 -13 1 C-11.35 1.33 -9.7 1.66 -8 2 C-8 2.66 -8 3.32 -8 4 C-7.4225 3.34 -6.845 2.68 -6.25 2 C-4 0 -4 0 0 0 Z " fill="#C5C5C5" transform="translate(565,786)"/>
<path d="M0 0 C0.33 0.99 0.66 1.98 1 3 C3.01508358 3.73323796 3.01508358 3.73323796 5 4 C5.8125 6.6875 5.8125 6.6875 6 10 C3.5625 12.875 3.5625 12.875 1 15 C-2.35861695 13.56590028 -4.35874939 11.80630679 -6.75 9.0625 C-7.36359375 8.37285156 -7.9771875 7.68320312 -8.609375 6.97265625 C-10 5 -10 5 -10 2 C-6.42454167 -0.86036666 -4.36137826 -1.37071888 0 0 Z M-4 3 C-3 5 -3 5 -3 5 Z M-1 7 C-1 7.99 -1 8.98 -1 10 C-0.34 9.67 0.32 9.34 1 9 C0.34 8.34 -0.32 7.68 -1 7 Z " fill="#C7C7C7" transform="translate(711,728)"/>
<path d="M0 0 C4.75 0.75 4.75 0.75 7 3 C7.55743243 8.23986486 7.55743243 8.23986486 5.625 10.875 C4 12 4 12 2 12 C2.33 13.98 2.66 15.96 3 18 C1.35 17.67 -0.3 17.34 -2 17 C-2.33 15.35 -2.66 13.7 -3 12 C-4.32 12.33 -5.64 12.66 -7 13 C-7 8.40848794 -6.31497074 7.66817876 -3.5 4.25 C-2.8503125 3.45078125 -2.200625 2.6515625 -1.53125 1.828125 C-1.0259375 1.22484375 -0.520625 0.6215625 0 0 Z M1 5 C1 5.66 1 6.32 1 7 C1.66 7 2.32 7 3 7 C3 6.34 3 5.68 3 5 C2.34 5 1.68 5 1 5 Z " fill="#C7C7C7" transform="translate(382,734)"/>
<path d="M0 0 C1.32 0.33 2.64 0.66 4 1 C3.4238322 4.88913264 1.43876197 7.01054984 -1 10 C-1 10.66 -1 11.32 -1 12 C-0.34 12 0.32 12 1 12 C2.35712166 10.44144019 2.35712166 10.44144019 3.625 8.5 C4.07101562 7.8503125 4.51703125 7.200625 4.9765625 6.53125 C5.31429688 6.0259375 5.65203125 5.520625 6 5 C7.32 5.33 8.64 5.66 10 6 C10 10.0649097 8.42535667 11.5200987 5.7890625 14.46875 C2.97409158 16.87807009 0.62789906 17.13690185 -3 17 C-4.9375 15.9375 -4.9375 15.9375 -6 14 C-6.70099555 10.65079903 -6.46529199 8.7485132 -4.65234375 5.83203125 C-3.15644674 3.8339655 -1.61937853 1.89891411 0 0 Z " fill="#C5C5C5" transform="translate(370,724)"/>
<path d="M0 0 C0.99 0.33 1.98 0.66 3 1 C3.2295747 6.39500547 3.03581546 11.92679142 1 17 C0.01 17.33 -0.98 17.66 -2 18 C-2.66 17.67 -3.32 17.34 -4 17 C-4.144375 16.34 -4.28875 15.68 -4.4375 15 C-4.623125 14.34 -4.80875 13.68 -5 13 C-7.6739124 12.10869587 -10.23723823 11.52268466 -13 11 C-10.13279564 7.95359537 -7.16064593 5.21956911 -3.875 2.625 C-3.21242188 2.10164062 -2.54984375 1.57828125 -1.8671875 1.0390625 C-1.25101562 0.69617188 -0.63484375 0.35328125 0 0 Z M-3 7 C-2 9 -2 9 -2 9 Z " fill="#C7C6C6" transform="translate(400,745)"/>
<path d="M0 0 C1.16161779 2.86578759 0.9946154 4.01630163 0.00390625 7.015625 C-0.70958984 8.61664062 -0.70958984 8.61664062 -1.4375 10.25 C-2.14712891 11.86648438 -2.14712891 11.86648438 -2.87109375 13.515625 C-3.24363281 14.33546875 -3.61617188 15.1553125 -4 16 C-5.921875 15.69140625 -5.921875 15.69140625 -8 15 C-9.25 11.9375 -9.25 11.9375 -10 9 C-11.65 8.67 -13.3 8.34 -15 8 C-15 7.01 -15 6.02 -15 5 C-13.44424022 4.15415002 -11.8800388 3.32381601 -10.3125 2.5 C-9.44238281 2.0359375 -8.57226562 1.571875 -7.67578125 1.09375 C-4.88211171 -0.04818792 -2.98370887 -0.21504208 0 0 Z M-6 5 C-6.33 5.66 -6.66 6.32 -7 7 C-6.01 6.67 -5.02 6.34 -4 6 C-4.66 5.67 -5.32 5.34 -6 5 Z " fill="#CFCFCF" transform="translate(364,716)"/>
<path d="M0 0 C6.625 -0.25 6.625 -0.25 10 2 C9.67 2.99 9.34 3.98 9 5 C7.35 5 5.7 5 4 5 C4 5.66 4 6.32 4 7 C5.32 7 6.64 7 8 7 C8 9.97 8 12.94 8 16 C5.03 16 2.06 16 -1 16 C-2.22602512 12.32192463 -1.70295577 10.11756073 -1.0625 6.3125 C-0.86785156 5.13300781 -0.67320312 3.95351563 -0.47265625 2.73828125 C-0.31667969 1.83464844 -0.16070312 0.93101562 0 0 Z " fill="#C3C3C3" transform="translate(505,785)"/>
<path d="M0 0 C-0.3125 1.9375 -0.3125 1.9375 -1 4 C-1.99 4.33 -2.98 4.66 -4 5 C-2.35 5.33 -0.7 5.66 1 6 C0.67 7.32 0.34 8.64 0 10 C-0.99 10 -1.98 10 -3 10 C-1.93354885 11.29633621 -1.93354885 11.29633621 0.5625 11.0625 C1.366875 11.041875 2.17125 11.02125 3 11 C2.8125 12.875 2.8125 12.875 2 15 C-0.63678659 16.49655455 -2.16532951 17.17595756 -5.16796875 16.54296875 C-5.77253906 16.36378906 -6.37710938 16.18460938 -7 16 C-7.50636607 14.25183142 -8.00484619 12.50137737 -8.5 10.75 C-8.7784375 9.77546875 -9.056875 8.8009375 -9.34375 7.796875 C-10 5 -10 5 -10 1 C-6.61981469 -0.04005702 -3.5219721 -0.08004482 0 0 Z " fill="#C4C4C3" transform="translate(617,777)"/>
<path d="M0 0 C-0.33 1.32 -0.66 2.64 -1 4 C-0.34 4 0.32 4 1 4 C1.268125 4.61875 1.53625 5.2375 1.8125 5.875 C2.95556848 8.2995233 2.95556848 8.2995233 6 10 C6 10.99 6 11.98 6 13 C2.66696609 15.49977543 1.26696398 16 -3 16 C-4.06099328 14.26164943 -5.09826483 12.50880196 -6.125 10.75 C-6.70507812 9.77546875 -7.28515625 8.8009375 -7.8828125 7.796875 C-9 5 -9 5 -8.30078125 2.72265625 C-5.78908976 -0.60363789 -3.94647226 -1.31549075 0 0 Z " fill="#C7C6C6" transform="translate(673,753)"/>
<path d="M0 0 C0.99 0.33 1.98 0.66 3 1 C2.67 2.65 2.34 4.3 2 6 C2.99 5.67 3.98 5.34 5 5 C5.66 6.32 6.32 7.64 7 9 C7.99 9 8.98 9 10 9 C10.33 10.32 10.66 11.64 11 13 C8.75 15.0625 8.75 15.0625 6 17 C3.01949462 16.85341777 2.02290511 16.02211095 -0.140625 13.93359375 C-0.83671875 13.10988281 -1.5328125 12.28617188 -2.25 11.4375 C-2.95640625 10.61121094 -3.6628125 9.78492188 -4.390625 8.93359375 C-4.92171875 8.29550781 -5.4528125 7.65742187 -6 7 C-4.02 4.69 -2.04 2.38 0 0 Z " fill="#C3C3C3" transform="translate(717,716)"/>
<path d="M0 0 C0.33 0.99 0.66 1.98 1 3 C-0.98 3.99 -0.98 3.99 -3 5 C-0.525 5.99 -0.525 5.99 2 7 C1.67 7.99 1.34 8.98 1 10 C1.66 10.33 2.32 10.66 3 11 C3 12.32 3 13.64 3 15 C-1.33427267 17.04673987 -1.33427267 17.04673987 -4.05859375 16.85546875 C-6 16 -6 16 -7.08203125 13.890625 C-7.32308594 13.01921875 -7.56414063 12.1478125 -7.8125 11.25 C-8.19341797 9.95835937 -8.19341797 9.95835937 -8.58203125 8.640625 C-9.03351097 5.78828581 -8.73334046 3.77372309 -8 1 C-5.10765685 0.17361624 -3.11257569 0 0 0 Z " fill="#BCBCBC" transform="translate(604,780)"/>
<path d="M0 0 C0.99 0.33 1.98 0.66 3 1 C3.984375 3.328125 3.984375 3.328125 4.75 6.25 C5.01296875 7.20390625 5.2759375 8.1578125 5.546875 9.140625 C6.01648367 12.10401766 5.77657937 14.12455745 5 17 C0.7170548 16.4520917 -1.85135641 14.97567196 -5.3125 12.4375 C-6.19550781 11.79683594 -7.07851563 11.15617188 -7.98828125 10.49609375 C-8.65214844 10.00238281 -9.31601562 9.50867188 -10 9 C-9.67 8.01 -9.34 7.02 -9 6 C-6.23723823 6.52268466 -3.6739124 7.10869587 -1 8 C-1.20625 7.05125 -1.4125 6.1025 -1.625 5.125 C-1.74875 4.09375 -1.8725 3.0625 -2 2 C-1.34 1.34 -0.68 0.68 0 0 Z " fill="#CBCBCB" transform="translate(691,738)"/>
<path d="M0 0 C6.72 0.72 6.72 0.72 8 2 C8.04063832 3.66617115 8.042721 5.33388095 8 7 C5.525 6.01 5.525 6.01 3 5 C3.53625 5.721875 4.0725 6.44375 4.625 7.1875 C6 10 6 10 5.4375 12.75 C4 15 4 15 2.1875 16 C-1.05420364 16 -2.56001776 15.10109582 -5 13 C-5.3125 9.8125 -5.3125 9.8125 -5 7 C-2 8 -2 8 -1 10 C-0.67 9.67 -0.34 9.34 0 9 C-0.66 8.01 -1.32 7.02 -2 6 C-1.45945946 1.45945946 -1.45945946 1.45945946 0 0 Z " fill="#BDBCBC" transform="translate(428,763)"/>
<path d="M0 0 C0 1.65 0 3.3 0 5 C-1.32 5 -2.64 5 -4 5 C-4 5.66 -4 6.32 -4 7 C-2.35 7 -0.7 7 1 7 C0.625 8.9375 0.625 8.9375 0 11 C-0.99 11.495 -0.99 11.495 -2 12 C-2.65555119 14.52733235 -2.65555119 14.52733235 -3 17 C-4.32 17 -5.64 17 -7 17 C-8.26305335 11.92523206 -9.27036084 7.27203646 -9 2 C-3.375 0 -3.375 0 0 0 Z " fill="#C2C2C2" transform="translate(592,782)"/>
<path d="M0 0 C1.53202706 0.25195908 3.05257128 0.57596777 4.5625 0.9375 C5.38878906 1.13214844 6.21507812 1.32679688 7.06640625 1.52734375 C8.02353516 1.76130859 8.02353516 1.76130859 9 2 C9.33 3.32 9.66 4.64 10 6 C9.01 6.33 8.02 6.66 7 7 C5.97299556 9.32891096 5.97299556 9.32891096 5.3125 12.0625 C5.06113281 12.98160156 4.80976563 13.90070312 4.55078125 14.84765625 C4.36902344 15.55792969 4.18726563 16.26820313 4 17 C2.68 17 1.36 17 0 17 C0.01160156 16.18015625 0.02320313 15.3603125 0.03515625 14.515625 C0.04869141 12.89914062 0.04869141 12.89914062 0.0625 11.25 C0.07410156 10.18265625 0.08570313 9.1153125 0.09765625 8.015625 C0.01480735 5.45725082 -0.36493778 3.44870838 -1 1 C-0.67 0.67 -0.34 0.34 0 0 Z " fill="#BFBFBE" transform="translate(477,779)"/>
<path d="M0 0 C0.33 0.99 0.66 1.98 1 3 C0.01 4.485 0.01 4.485 -1 6 C-0.02059602 8.34205301 0.98034573 10.67518826 2 13 C1.6875 15.4375 1.6875 15.4375 1 17 C-0.8125 16.9375 -0.8125 16.9375 -3 16 C-4 13.66666667 -5 11.33333333 -6 9 C-8.05000871 8.19471111 -8.05000871 8.19471111 -10 8 C-10.33 7.01 -10.66 6.02 -11 5 C-2.81818182 0 -2.81818182 0 0 0 Z " fill="#BEBDBD" transform="translate(648,764)"/>
<path d="M0 0 C1.98 0.495 1.98 0.495 4 1 C4.20625 2.27875 4.4125 3.5575 4.625 4.875 C5.08483533 7.07813968 5.08483533 7.07813968 6 9 C8.99428144 10.61147442 8.99428144 10.61147442 12 11 C12 11.99 12 12.98 12 14 C8.62902617 15.49821059 6.79557881 16 3 16 C2.29954544 14.08802961 1.615081 12.17019565 0.9375 10.25 C0.55464844 9.18265625 0.17179688 8.1153125 -0.22265625 7.015625 C-0.98010011 4.07719958 -1.07151741 2.77651052 0 0 Z " fill="#CBCBCB" transform="translate(620,774)"/>
<path d="M0 0 C0.99 0.33 1.98 0.66 3 1 C1.7874262 4.72433382 0.49140021 8.37802806 -1 12 C-0.01 12.99 0.98 13.98 2 15 C1.67 15.66 1.34 16.32 1 17 C-4.75 16.125 -4.75 16.125 -7 15 C-6.47799942 9.77999416 -4.79095098 5.41286212 -2 1 C-1.34 0.67 -0.68 0.34 0 0 Z " fill="#C6C6C5" transform="translate(411,752)"/>
<path d="M0 0 C1.98 0.495 1.98 0.495 4 1 C4 5.95 4 10.9 4 16 C2.35 16 0.7 16 -1 16 C-1.02685095 13.52076199 -1.04676547 11.0418116 -1.0625 8.5625 C-1.07506836 7.50192383 -1.07506836 7.50192383 -1.08789062 6.41992188 C-1.09653588 4.61306441 -1.05220011 2.80612397 -1 1 C-0.67 0.67 -0.34 0.34 0 0 Z " fill="#747373" transform="translate(544,787)"/>
<path d="M0 0 C1.65 0.33 3.3 0.66 5 1 C3.60240043 6.08218027 1.44978893 10.96671562 -2 15 C-2.99 15 -3.98 15 -5 15 C-6 12 -6 12 -4.78515625 9.08203125 C-4.21667969 8.00308594 -3.64820313 6.92414062 -3.0625 5.8125 C-2.49660156 4.72582031 -1.93070312 3.63914062 -1.34765625 2.51953125 C-0.90292969 1.68808594 -0.45820313 0.85664062 0 0 Z " fill="#BBBBBB" transform="translate(420,758)"/>
<path d="M0 0 C0.99 0.33 1.98 0.66 3 1 C2.5188509 6.77378925 0.81532819 10.95859836 -2 16 C-3.32 15.34 -4.64 14.68 -6 14 C-5.19074658 11.85294019 -4.37750887 9.7073817 -3.5625 7.5625 C-3.11003906 6.36753906 -2.65757812 5.17257812 -2.19140625 3.94140625 C-1 1 -1 1 0 0 Z " fill="#BCBCBC" transform="translate(448,770)"/>
<path d="M0 0 C3.96001753 0.51805107 5.41052745 2.22280479 7.8125 5.3125 C8.43769531 6.09238281 9.06289063 6.87226562 9.70703125 7.67578125 C11 10 11 10 10.69921875 12.29296875 C10.46847656 12.85628906 10.23773437 13.41960938 10 14 C6.41477124 12.52934075 4.55613904 10.59934458 2.1875 7.5625 C1.56230469 6.78003906 0.93710937 5.99757813 0.29296875 5.19140625 C-0.34705078 4.10666016 -0.34705078 4.10666016 -1 3 C-0.67 2.01 -0.34 1.02 0 0 Z " fill="#BEBEBE" transform="translate(696,734)"/>
<path d="M0 0 C3.9090636 0.22337506 4.91657988 0.90863511 7.625 3.875 C8.40875 4.90625 9.1925 5.9375 10 7 C10.98290968 8.01680311 11.97334787 9.02738219 13 10 C12.01 10.99 11.02 11.98 10 13 C8.70756532 11.8758824 7.41607925 10.75067408 6.125 9.625 C5.40570312 8.99851562 4.68640625 8.37203125 3.9453125 7.7265625 C2.5923402 6.52573166 1.2791655 5.2791655 0 4 C0 2.68 0 1.36 0 0 Z " fill="#ACACAC" transform="translate(721,712)"/>
<path d="M0 0 C-3 1.5 -3 1.5 -6 3 C-5.01 3.33 -4.02 3.66 -3 4 C-3.33 5.32 -3.66 6.64 -4 8 C-5.32 8 -6.64 8 -8 8 C-8.33 8.66 -8.66 9.32 -9 10 C-10.98 9.34 -12.96 8.68 -15 8 C-15 7.01 -15 6.02 -15 5 C-13.44424022 4.15415002 -11.8800388 3.32381601 -10.3125 2.5 C-9.44238281 2.0359375 -8.57226562 1.571875 -7.67578125 1.09375 C-4.88211171 -0.04818792 -2.98370887 -0.21504208 0 0 Z M-6 5 C-6.33 5.66 -6.66 6.32 -7 7 C-6.01 6.67 -5.02 6.34 -4 6 C-4.66 5.67 -5.32 5.34 -6 5 Z " fill="#B4B4B3" transform="translate(364,716)"/>
<path d="M0 0 C1.32 0.33 2.64 0.66 4 1 C3.39305845 4.15330554 2.3583335 6.18888867 0.4375 8.75 C-0.24505859 9.67039062 -0.24505859 9.67039062 -0.94140625 10.609375 C-1.29074219 11.06828125 -1.64007813 11.5271875 -2 12 C-2.66 11.34 -3.32 10.68 -4 10 C-4.66 11.32 -5.32 12.64 -6 14 C-6.48792229 10.74718472 -6.40014561 8.65286916 -4.6640625 5.8203125 C-3.15782398 3.8332091 -1.61782175 1.8970886 0 0 Z " fill="#BCBCBC" transform="translate(370,724)"/>
<path d="M0 0 C0.99 0.33 1.98 0.66 3 1 C1.84414715 4.91211733 0.64465038 7.8745041 -2 11 C-2.33 10.34 -2.66 9.68 -3 9 C-3.66 9 -4.32 9 -5 9 C-3.90931332 5.22454612 -3.0916909 2.52956528 0 0 Z " fill="#B0AFAF" transform="translate(411,752)"/>
<path d="M0 0 C0.33 0 0.66 0 1 0 C1 4.62 1 9.24 1 14 C0.01 14 -0.98 14 -2 14 C-2.05389087 12.04196493 -2.09274217 10.08351091 -2.125 8.125 C-2.14820313 7.03445313 -2.17140625 5.94390625 -2.1953125 4.8203125 C-2 2 -2 2 0 0 Z " fill="#FFFFFF" transform="translate(546,788)"/>
<path d="M0 0 C0.66 0.33 1.32 0.66 2 1 C-2.62 5.62 -7.24 10.24 -12 15 C-12 10.81257912 -9.7797863 8.86923487 -7 6 C-4.72436307 3.92653743 -2.388922 1.9414294 0 0 Z " fill="#D6D6D6" transform="translate(483,470)"/>
<path d="M0 0 C1.65 0 3.3 0 5 0 C5 0.99 5 1.98 5 3 C1.77208445 5.1519437 0.71599191 5.20086443 -3 5 C-3.33 4.01 -3.66 3.02 -4 2 C-2.68 2 -1.36 2 0 2 C0 1.34 0 0.68 0 0 Z " fill="#D4D4D4" transform="translate(674,763)"/>
<path d="M0 0 C-0.33 1.32 -0.66 2.64 -1 4 C-2.98 4.33 -4.96 4.66 -7 5 C-7.33 3.68 -7.66 2.36 -8 1 C-5.23735711 0.40267181 -2.83967231 0 0 0 Z " fill="#CDCDCD" transform="translate(606,792)"/>
<path d="M0 0 C0.66 0.33 1.32 0.66 2 1 C-1.63 4.63 -5.26 8.26 -9 12 C-9 8.00102358 -7.64683965 6.93298448 -5 4 C-3.36643049 2.62631655 -1.7074998 1.28062485 0 0 Z " fill="#CFCFCF" transform="translate(626,662)"/>
<path d="M0 0 C2.0625 0.4375 2.0625 0.4375 4 1 C3.67 2.32 3.34 3.64 3 5 C3 4.01 3 3.02 3 2 C2.34 2 1.68 2 1 2 C1.33 4.97 1.66 7.94 2 11 C-0.30694043 7.53958935 -0.62056512 5.09789669 -1 1 C-0.67 0.67 -0.34 0.34 0 0 Z " fill="#7C7C7B" transform="translate(620,774)"/>
<path d="M0 0 C0.99 0.66 1.98 1.32 3 2 C3 2.66 3 3.32 3 4 C3.66 4.66 4.32 5.32 5 6 C3.68 6 2.36 6 1 6 C0.67 6.66 0.34 7.32 0 8 C-0.66 5.69 -1.32 3.38 -2 1 C-1.34 0.67 -0.68 0.34 0 0 Z " fill="#757474" transform="translate(673,757)"/>
<path d="M0 0 C0.99 0 1.98 0 3 0 C3 1.65 3 3.3 3 5 C1.68 5 0.36 5 -1 5 C-0.67 3.35 -0.34 1.7 0 0 Z " fill="#A2A2A2" transform="translate(571,798)"/>
<path d="M0 0 C0 1.98 0 3.96 0 6 C-1.32 6 -2.64 6 -4 6 C-4 4.35 -4 2.7 -4 1 C-1 0 -1 0 0 0 Z " fill="#BBBBBB" transform="translate(454,782)"/>
<path d="M0 0 C1.32 0 2.64 0 4 0 C3.67 1.32 3.34 2.64 3 4 C2.01 4 1.02 4 0 4 C-1.33981486 4.3062434 -2.67511887 4.63451555 -4 5 C-2.25 2.5 -2.25 2.5 0 0 Z " fill="#979696" transform="translate(561,786)"/>
<path d="M0 0 C0.99 0.33 1.98 0.66 3 1 C2.67 2.32 2.34 3.64 2 5 C1.67 4.34 1.34 3.68 1 3 C0.67 4.65 0.34 6.3 0 8 C-1.125 6.25 -1.125 6.25 -2 4 C-1.125 1.75 -1.125 1.75 0 0 Z " fill="#8D8D8D" transform="translate(691,738)"/>
<path d="M0 0 C0.66 0.33 1.32 0.66 2 1 C1.21625 1.763125 0.4325 2.52625 -0.375 3.3125 C-3.07257717 5.90891805 -3.07257717 5.90891805 -5 9 C-5.3125 6.75 -5.3125 6.75 -5 4 C-2.5 1.6875 -2.5 1.6875 0 0 Z " fill="#ACACAB" transform="translate(374,293)"/>
<path d="" fill="#040404" transform="translate(0,0)"/>
<path d="" fill="#040404" transform="translate(0,0)"/>
</svg>
